<?xml version="1.0" encoding="UTF-8" standalone="no"?>
<!DOCTYPE svg PUBLIC "-//W3C//DTD SVG 1.1//EN"
 "http://www.w3.org/Graphics/SVG/1.1/DTD/svg11.dtd">
<!-- Generated by graphviz version 2.40.1 (20161225.0304)
 -->
<!-- Title: G Pages: 1 -->
<svg width="232pt" height="492pt"
 viewBox="0.00 0.00 232.00 492.00" xmlns="http://www.w3.org/2000/svg" xmlns:xlink="http://www.w3.org/1999/xlink">
<g id="graph0" class="graph" transform="scale(1 1) rotate(0) translate(4 488)">
<title>G</title>
<polygon fill="#ffffff" stroke="transparent" points="-4,4 -4,-488 228,-488 228,4 -4,4"/>
<!-- A0 -->
<g id="node1" class="node">
<title>A0</title>
<polygon fill="none" stroke="#000000" points="68,-452 68,-484 162,-484 162,-452 68,-452"/>
<text text-anchor="start" x="77.631" y="-465" font-family="Helvetica,sans-Serif" font-size="10.00" fill="#000000">+A:SoccerPlayer</text>
<polygon fill="none" stroke="#000000" points="68,-396 68,-452 162,-452 162,-396 68,-396"/>
<text text-anchor="start" x="84.576" y="-433" font-family="Helvetica,sans-Serif" font-size="10.00" fill="#000000">+name: string</text>
<text text-anchor="start" x="79.8525" y="-409" font-family="Helvetica,sans-Serif" font-size="10.00" fill="#000000">+position: string</text>
<polygon fill="none" stroke="#000000" points="68,-316 68,-396 162,-396 162,-316 68,-316"/>
<text text-anchor="start" x="85.691" y="-377" font-family="Helvetica,sans-Serif" font-size="10.00" fill="#000000">+startRun():a</text>
<text text-anchor="start" x="85.9655" y="-353" font-family="Helvetica,sans-Serif" font-size="10.00" fill="#000000">+stopRun():a</text>
<text text-anchor="start" x="91.804" y="-329" font-family="Helvetica,sans-Serif" font-size="10.00" fill="#000000">+tackle():v</text>
</g>
<!-- A3 -->
<g id="node4" class="node">
<title>A3</title>
<polygon fill="none" stroke="#000000" points="12,-234 12,-266 107,-266 107,-234 12,-234"/>
<text text-anchor="start" x="39.6335" y="-247" font-family="Helvetica,sans-Serif" font-size="10.00" fill="#000000">+Arsenal</text>
<polygon fill="none" stroke="#000000" points="12,-190 12,-234 107,-234 107,-190 12,-190"/>
<text text-anchor="start" x="21.9925" y="-215" font-family="Helvetica,sans-Serif" font-size="10.00" fill="#000000">&#45;goalsScored: int</text>
<text text-anchor="start" x="36.164" y="-203" font-family="Helvetica,sans-Serif" font-size="10.00" fill="#000000">assists: int</text>
<polygon fill="none" stroke="#000000" points="12,-146 12,-190 107,-190 107,-146 12,-146"/>
<text text-anchor="start" x="46.028" y="-171" font-family="Helvetica,sans-Serif" font-size="10.00" fill="#000000">+run()</text>
<text text-anchor="start" x="38.804" y="-159" font-family="Helvetica,sans-Serif" font-size="10.00" fill="#000000"> +tackle()</text>
</g>
<!-- A0&#45;&gt;A3 -->
<g id="edge1" class="edge">
<title>A0&#45;&gt;A3</title>
<path fill="none" stroke="#000000" d="M87.8502,-305.9454C83.9501,-292.4342 80.0279,-278.8467 76.3868,-266.2329"/>
<polygon fill="none" stroke="#000000" points="84.5458,-307.1181 90.6819,-315.7552 91.2712,-305.1767 84.5458,-307.1181"/>
</g>
<!-- A4 -->
<g id="node5" class="node">
<title>A4</title>
<polygon fill="none" stroke="#000000" points="125,-234 125,-266 220,-266 220,-234 125,-234"/>
<text text-anchor="start" x="145.685" y="-247" font-family="Helvetica,sans-Serif" font-size="10.00" fill="#000000">+Tottenham</text>
<polygon fill="none" stroke="#000000" points="125,-190 125,-234 220,-234 220,-190 125,-190"/>
<text text-anchor="start" x="134.9925" y="-215" font-family="Helvetica,sans-Serif" font-size="10.00" fill="#000000">&#45;goalsScored: int</text>
<text text-anchor="start" x="136.667" y="-203" font-family="Helvetica,sans-Serif" font-size="10.00" fill="#000000">&#45;yellowcards: int</text>
<polygon fill="none" stroke="#000000" points="125,-146 125,-190 220,-190 220,-146 125,-146"/>
<text text-anchor="start" x="159.028" y="-171" font-family="Helvetica,sans-Serif" font-size="10.00" fill="#000000">+run()</text>
<text text-anchor="start" x="151.804" y="-159" font-family="Helvetica,sans-Serif" font-size="10.00" fill="#000000"> +tackle()</text>
</g>
<!-- A0&#45;&gt;A4 -->
<g id="edge2" class="edge">
<title>A0&#45;&gt;A4</title>
<path fill="none" stroke="#000000" d="M142.6346,-305.9454C146.6044,-292.4342 150.5966,-278.8467 154.3027,-266.2329"/>
<polygon fill="none" stroke="#000000" points="139.2134,-305.174 139.7524,-315.7552 145.9295,-307.1474 139.2134,-305.174"/>
</g>
<!-- A1 -->
<g id="node2" class="node">
<title>A1</title>
<polygon fill="none" stroke="#000000" points="0,-54 0,-86 110,-86 110,-54 0,-54"/>
<text text-anchor="start" x="18.7365" y="-67" font-family="Helvetica,sans-Serif" font-size="10.00" fill="#000000">+I:PassInterface</text>
<polygon fill="none" stroke="#000000" points="0,-10 0,-54 110,-54 110,-10 0,-10"/>
<text text-anchor="start" x="9.9975" y="-35" font-family="Helvetica,sans-Serif" font-size="10.00" fill="#000000">&#45;chooseTeammate()</text>
<text text-anchor="start" x="19.5805" y="-23" font-family="Helvetica,sans-Serif" font-size="10.00" fill="#000000">+KickAccurate()</text>
</g>
<!-- A2 -->
<g id="node3" class="node">
<title>A2</title>
<polygon fill="none" stroke="#000000" points="128,-64 128,-96 224,-96 224,-64 128,-64"/>
<text text-anchor="start" x="137.788" y="-77" font-family="Helvetica,sans-Serif" font-size="10.00" fill="#000000">+I:ShootInterface</text>
<polygon fill="none" stroke="#000000" points="128,-32 128,-64 224,-64 224,-32 128,-32"/>
<text text-anchor="start" x="147.6705" y="-45" font-family="Helvetica,sans-Serif" font-size="10.00" fill="#000000">&#45;pickTarget()</text>
<polygon fill="none" stroke="#000000" points="128,0 128,-32 224,-32 224,0 128,0"/>
<text text-anchor="start" x="148.085" y="-13" font-family="Helvetica,sans-Serif" font-size="10.00" fill="#000000"> +KickHard()</text>
</g>
<!-- A3&#45;&gt;A1 -->
<g id="edge3" class="edge">
<title>A3&#45;&gt;A1</title>
<path fill="none" stroke="#000000" stroke-dasharray="5,2" d="M57.2114,-135.35C56.782,-118.3871 56.3394,-100.905 55.964,-86.079"/>
<polygon fill="none" stroke="#000000" points="53.7243,-135.9081 57.4764,-145.8162 60.7221,-135.7308 53.7243,-135.9081"/>
</g>
<!-- A3&#45;&gt;A2 -->
<g id="edge4" class="edge">
<title>A3&#45;&gt;A2</title>
<path fill="none" stroke="#000000" stroke-dasharray="5,2" d="M109.6006,-137.6675C119.9318,-123.716 130.5979,-109.3123 140.2778,-96.2402"/>
<polygon fill="none" stroke="#000000" points="106.7048,-135.6969 103.5664,-145.8162 112.3303,-139.8626 106.7048,-135.6969"/>
</g>
<!-- A4&#45;&gt;A1 -->
<g id="edge5" class="edge">
<title>A4&#45;&gt;A1</title>
<path fill="none" stroke="#000000" stroke-dasharray="5,2" d="M121.4579,-137.7466C108.3478,-120.0423 94.6944,-101.6043 83.1978,-86.079"/>
<polygon fill="none" stroke="#000000" points="118.6697,-139.8626 127.4336,-145.8162 124.2952,-135.6969 118.6697,-139.8626"/>
</g>
<!-- A4&#45;&gt;A2 -->
<g id="edge6" class="edge">
<title>A4&#45;&gt;A2</title>
<path fill="none" stroke="#000000" stroke-dasharray="5,2" d="M173.7795,-135.7089C174.1171,-122.3728 174.4633,-108.7015 174.7787,-96.2402"/>
<polygon fill="none" stroke="#000000" points="170.2779,-135.7308 173.5236,-145.8162 177.2757,-135.9081 170.2779,-135.7308"/>
</g>
</g>
</svg>
