<?xml version="1.0" encoding="UTF-8" standalone="no"?>
<!DOCTYPE svg PUBLIC "-//W3C//DTD SVG 1.1//EN"
 "http://www.w3.org/Graphics/SVG/1.1/DTD/svg11.dtd">
<!-- Generated by graphviz version 2.40.1 (20161225.0304)
 -->
<!-- Title: G Pages: 1 -->
<svg width="198pt" height="238pt"
 viewBox="0.00 0.00 197.50 238.00" xmlns="http://www.w3.org/2000/svg" xmlns:xlink="http://www.w3.org/1999/xlink">
<g id="graph0" class="graph" transform="scale(1 1) rotate(0) translate(4 234)">
<title>G</title>
<polygon fill="#ffffff" stroke="transparent" points="-4,4 -4,-234 193.5,-234 193.5,4 -4,4"/>
<!-- A0 -->
<g id="node1" class="node">
<title>A0</title>
<polygon fill="none" stroke="#000000" points=".5,-192 .5,-224 81.5,-224 81.5,-192 .5,-192"/>
<text text-anchor="start" x="13.915" y="-205" font-family="Helvetica,sans-Serif" font-size="10.00" fill="#000000">+A:HotDrink</text>
<polygon fill="none" stroke="#000000" points=".5,-160 .5,-192 81.5,-192 81.5,-160 .5,-160"/>
<text text-anchor="start" x="10.021" y="-173" font-family="Helvetica,sans-Serif" font-size="10.00" fill="#000000">+milk:boolean</text>
</g>
<!-- A2 -->
<g id="node3" class="node">
<title>A2</title>
<polygon fill="none" stroke="#000000" points="48.5,-72 48.5,-104 136.5,-104 136.5,-72 48.5,-72"/>
<text text-anchor="start" x="66.5195" y="-85" font-family="Helvetica,sans-Serif" font-size="10.00" fill="#000000">+CupOfTea</text>
<polygon fill="none" stroke="#000000" points="48.5,-40 48.5,-72 136.5,-72 136.5,-40 48.5,-40"/>
<text text-anchor="start" x="58.052" y="-53" font-family="Helvetica,sans-Serif" font-size="10.00" fill="#000000">&#45;leafType:string</text>
<polygon fill="none" stroke="#000000" points="48.5,-20 48.5,-40 136.5,-40 136.5,-20 48.5,-20"/>
<polygon fill="none" stroke="#000000" points="48.5,0 48.5,-20 136.5,-20 136.5,0 48.5,0"/>
</g>
<!-- A0&#45;&gt;A2 -->
<g id="edge1" class="edge">
<title>A0&#45;&gt;A2</title>
<path fill="none" stroke="#000000" d="M56.0132,-150.2337C61.3746,-135.7991 67.4507,-119.4404 73.0851,-104.2708"/>
<polygon fill="none" stroke="#000000" points="52.6308,-149.2882 52.4299,-159.8812 59.1928,-151.7256 52.6308,-149.2882"/>
</g>
<!-- A1 -->
<g id="node2" class="node">
<title>A1</title>
<polygon fill="none" stroke="#000000" points="99.5,-198 99.5,-230 189.5,-230 189.5,-198 99.5,-198"/>
<text text-anchor="start" x="128.2435" y="-211" font-family="Helvetica,sans-Serif" font-size="10.00" fill="#000000">+I:ICup</text>
<polygon fill="none" stroke="#000000" points="99.5,-154 99.5,-198 189.5,-198 189.5,-154 99.5,-154"/>
<text text-anchor="start" x="117.1355" y="-179" font-family="Helvetica,sans-Serif" font-size="10.00" fill="#000000">=color:string</text>
<text text-anchor="start" x="109.0715" y="-167" font-family="Helvetica,sans-Serif" font-size="10.00" fill="#000000">=volume:double</text>
</g>
<!-- A1&#45;&gt;A2 -->
<g id="edge2" class="edge">
<title>A1&#45;&gt;A2</title>
<path fill="none" stroke="#000000" stroke-dasharray="5,2" d="M126.7218,-144.1357C121.9328,-131.2421 116.7289,-117.2316 111.8583,-104.1184"/>
<polygon fill="#000000" stroke="#000000" points="130.2908,-153.7444 122.5904,-145.937 128.5498,-149.0573 126.8088,-144.3701 126.8088,-144.3701 126.8088,-144.3701 128.5498,-149.0573 131.0273,-142.8033 130.2908,-153.7444 130.2908,-153.7444"/>
</g>
</g>
</svg>
